# This file uses meters as units for non-parametric coordinates.

mtllib Bar_Corner.mtl
g default
v -62.485355 -50.000000 -62.485344
v -62.485355 50.000000 62.485367
v 40.207958 50.000000 62.485367
v 9.058426 -50.000000 -62.485352
v -62.485355 -50.000000 40.651871
v 40.429909 -50.000000 40.616394
v 40.429909 50.000000 40.616394
v -62.485355 50.000000 40.651871
v -62.485355 20.439644 -62.485344
v -62.485355 34.413208 40.651871
v -62.485355 34.413208 62.485367
v 40.207958 34.413208 62.485367
v 40.429909 34.413208 40.616394
v 9.058426 20.439644 -62.485352
v -62.485355 -50.000000 9.174545
v 9.195103 20.439644 8.689667
v 9.195103 50.000000 8.689667
v -62.485355 50.000000 9.174545
v -62.485355 20.439644 9.174545
v 62.485355 50.000000 40.580933
v 62.485355 50.000000 -62.485352
v 40.651859 -50.000000 -62.485352
v 40.651859 50.000000 -62.485352
v 62.485355 34.413208 40.580933
v 62.485355 34.413208 -62.485352
v 40.651859 34.413208 -62.485352
v 9.174532 50.000000 -62.485352
v -62.485355 17.776459 -62.485336
v -62.485348 17.776459 9.174561
v -62.485348 17.776596 40.651886
v 40.429909 17.776596 40.616394
v 40.651859 17.776596 -62.485344
v 9.058426 17.776459 -62.485352
v 40.216846 48.109070 62.485382
v -62.476467 48.109070 62.485382
v -62.476467 48.109070 40.651886
v -62.476467 48.109062 9.174561
v 9.203989 48.109062 8.689682
v 9.174532 48.109062 -62.485336
v 40.660744 48.109070 -62.485336
v 62.494240 48.109070 -62.485336
v 62.494240 48.109070 40.580948
vt 0.462661 0.132642
vt 0.462661 0.133058
vt 0.462400 0.133058
vt 0.462400 0.132642
vt 0.462697 0.133058
vt 0.462697 0.132642
vt 0.462661 0.133658
vt 0.433902 0.410491
vt 0.462697 0.133658
vt 0.433851 0.410491
vt 0.433851 0.409891
vt 0.463250 0.472383
vt 0.463301 0.472383
vt 0.432559 0.410491
vt 0.432559 0.409891
vt 0.432559 0.411857
vt 0.462738 0.134607
vt 0.462738 0.132642
vt 0.462999 0.132642
vt 0.462999 0.134607
vt 0.463035 0.132642
vt 0.463035 0.134607
vt 0.462999 0.135024
vt 0.462738 0.135024
vt 0.463035 0.135024
vt 0.463393 0.137459
vt 0.463393 0.138816
vt 0.434635 0.415648
vt 0.434635 0.414292
vt 0.463429 0.138816
vt 0.463429 0.137459
vt 0.431955 0.413849
vt 0.431955 0.411883
vt 0.432272 0.411883
vt 0.432272 0.413849
vt 0.430663 0.411883
vt 0.430663 0.413849
vt 0.460960 0.135471
vt 0.460959 0.137433
vt 0.460543 0.137433
vt 0.460543 0.135475
vt 0.461569 0.136066
vt 0.461559 0.137433
vt 0.460961 0.135050
vt 0.462925 0.136067
vt 0.462925 0.135467
vt 0.462925 0.135050
vt 0.462620 0.476184
vt 0.462629 0.474818
vt 0.463986 0.474821
vt 0.463986 0.476184
vt 0.465348 0.137433
vt 0.464931 0.137433
vt 0.464931 0.135471
vt 0.465348 0.135475
vt 0.464930 0.135050
vt 0.462965 0.135467
vt 0.462965 0.135050
vt 0.460498 0.139417
vt 0.460498 0.137459
vt 0.460759 0.137459
vt 0.460759 0.139416
vt 0.460795 0.137459
vt 0.460795 0.139417
vt 0.431224 0.410493
vt 0.460623 0.472384
vt 0.460572 0.472384
vt 0.460572 0.471020
vt 0.432516 0.410493
vt 0.432516 0.411857
vt 0.431224 0.409891
vt 0.459138 0.133058
vt 0.432516 0.409891
vt 0.458877 0.133658
vt 0.458877 0.133058
vt 0.458841 0.133658
vt 0.458841 0.133058
vt 0.459138 0.132642
vt 0.458877 0.132642
vt 0.458841 0.132642
vt 0.460877 0.138825
vt 0.460877 0.137459
vt 0.433174 0.414292
vt 0.433174 0.415658
vt 0.460841 0.137459
vt 0.460841 0.138825
vt 0.431902 0.415837
vt 0.431902 0.413875
vt 0.432219 0.413875
vt 0.432219 0.415837
vt 0.430610 0.413875
vt 0.430610 0.415837
vt 0.460623 0.471020
vt 0.433851 0.411857
vt 0.431224 0.411857
vt 0.463250 0.471017
vt 0.463301 0.471017
vt 0.431174 0.410493
vt 0.462999 0.134607
vt 0.462999 0.134607
vt 0.462999 0.134607
vt 0.460759 0.137459
vt 0.462999 0.135024
vt 0.458877 0.132642
vt 0.462999 0.132642
vt 0.458877 0.133058
vt 0.430646 0.409891
vt 0.458877 0.133058
vt 0.435162 0.415648
vt 0.430646 0.410491
vt 0.432646 0.414292
vt 0.435162 0.414292
vt 0.434429 0.410491
vt 0.432646 0.415658
vt 0.462661 0.133058
vt 0.462661 0.133058
vt 0.434429 0.409891
vt 0.460759 0.139416
vt 0.462661 0.132642
vt 0.460961 0.135050
vt 0.463035 0.134607
vt 0.462925 0.135467
vt 0.458841 0.133058
vt 0.461569 0.136066
vt 0.434168 0.409891
vt 0.465348 0.135475
vt 0.460543 0.135475
vt 0.462738 0.134607
vt 0.464930 0.135050
vt 0.430907 0.409891
vt 0.430907 0.409891
vt 0.464931 0.135471
vt 0.464931 0.135471
vt 0.431174 0.410493
vt 0.460960 0.135471
vt 0.460960 0.135471
vt 0.460960 0.135471
vt 0.460960 0.135471
vt 0.460959 0.137433
vt 0.462697 0.133058
vn -1.000000 -0.000000 0.000000
vn -1.000000 -0.000000 -0.000059
vn -1.000000 0.000407 -0.000058
vn -1.000000 0.000649 0.000000
vn 0.000000 1.000000 0.000000
vn 0.000000 1.000000 0.000000
vn 0.000000 1.000000 0.000000
vn 0.000000 1.000000 0.000000
vn 0.000000 -0.000001 1.000000
vn 0.000000 -0.000001 1.000000
vn 0.000000 -0.000000 1.000000
vn 0.000000 0.000000 1.000000
vn 0.000000 1.000000 0.000000
vn 0.000000 1.000000 0.000000
vn -1.000000 -0.000000 -0.000087
vn -1.000000 0.000194 -0.000043
vn -1.000000 -0.000000 0.000000
vn -1.000000 -0.000000 0.000000
vn -0.000000 0.000000 -1.000000
vn -0.000000 0.000000 -1.000000
vn -0.000000 -0.000001 -1.000000
vn -0.000000 -0.000001 -1.000000
vn -1.000000 -0.000000 0.000000
vn -1.000000 -0.000003 0.000000
vn -0.006764 -0.000000 -0.999977
vn -0.006764 0.000000 -0.999977
vn -0.006764 0.000003 -0.999977
vn -0.006764 0.000003 -0.999977
vn 0.000000 1.000000 -0.000000
vn 0.000000 1.000000 -0.000000
vn 0.000000 1.000000 -0.000000
vn 0.000000 1.000000 -0.000000
vn 0.000345 -0.000000 1.000000
vn 0.000345 -0.000000 1.000000
vn 0.000345 0.000000 1.000000
vn 0.000345 0.000000 1.000000
vn 0.000000 -1.000000 -0.000000
vn 0.000000 -1.000000 -0.000000
vn 0.000000 -1.000000 -0.000000
vn 0.000000 -1.000000 -0.000000
vn 0.000000 1.000000 -0.000000
vn 0.000000 1.000000 -0.000000
vn 0.000000 1.000000 0.000000
vn 0.000000 1.000000 0.000000
vn 0.000000 0.000001 -1.000000
vn -0.000000 0.000001 -1.000000
vn -0.000000 0.000000 -1.000000
vn 0.000000 0.000000 -1.000000
vn 1.000000 -0.000649 0.000000
vn 1.000000 -0.000649 0.000000
vn 1.000000 0.000000 0.000000
vn 1.000000 -0.000000 0.000000
vn 0.000000 0.000000 -1.000000
vn -0.000000 0.000000 -1.000000
vn 0.000000 1.000000 -0.000000
vn 0.000000 1.000000 -0.000000
vn 0.000000 -0.000000 -1.000000
vn 0.000000 0.000000 -1.000000
vn -0.999997 0.001964 0.001115
vn -0.999997 0.001964 0.001115
vn -0.999997 0.002259 0.001167
vn -0.999997 0.002259 0.001167
vn 0.999998 0.000000 0.002153
vn 0.999998 0.000000 0.002153
vn 0.999998 0.000000 0.002153
vn 0.999998 0.000000 0.002153
vn 0.000000 -1.000000 0.000000
vn 0.000000 -1.000000 0.000000
vn 0.000000 -1.000000 0.000000
vn 0.000000 -1.000000 0.000000
vn 0.701113 -0.000001 0.713050
vn 0.701113 0.000001 0.713050
vn 0.701113 -0.000456 0.713050
vn 0.701113 -0.000456 0.713050
vn 0.000000 1.000000 -0.000000
vn 0.000000 1.000000 -0.000000
vn 0.000000 1.000000 -0.000000
vn 0.000000 -1.000000 0.000000
vn 0.000000 -1.000000 0.000000
vn 0.000000 -1.000000 0.000000
vn -1.000000 0.000000 0.000000
vn -1.000000 0.000000 0.000000
vn -1.000000 0.000000 -0.000000
vn 0.000345 -0.000000 1.000000
vn 0.000345 -0.000000 1.000000
vn 0.999998 -0.000000 0.002153
vn 0.999998 -0.000000 0.002153
vn 0.000000 0.000000 -1.000000
vn 0.000000 0.000000 -1.000000
vn -0.000000 0.000000 -1.000000
vn -0.000000 0.000000 -1.000000
vn 0.000000 0.000008 1.000000
vn 0.000000 0.000008 1.000000
vn -0.999989 -0.004701 0.000000
vn -0.999989 -0.004701 0.000000
vn -0.999989 -0.004701 0.000000
vn -0.006764 -0.000040 -0.999977
vn -0.006764 -0.000040 -0.999977
vn -0.999997 -0.002350 0.000351
vn -0.999997 -0.002350 0.000351
vn 0.000000 -0.000008 -1.000000
vn 0.000000 -0.000008 -1.000000
vn 0.000000 -0.000008 -1.000000
vn 0.999989 0.004700 0.000000
vn 0.999989 0.004700 0.000000
vn 0.701109 0.003302 0.713047
vn 0.701109 0.003302 0.713047
s 1
g Bar_Block_Corner:pCube6
usemtl blinn14SG
f 35/119/1 36/116/2 10/3/3 11/4/4
s 2
f 7/136/5 8/139/6 2/40/7 3/41/8
s 3
f 11/59/9 12/60/10 34/61/11 35/118/12
s 2
f 17/124/13 18/43/14 8/39/6 7/137/5
s 1
f 36/117/2 37/113/15 19/8/16 10/125/3
f 19/8/16 29/10/17 30/11/18 10/125/3
s 4
f 33/93/19 28/66/20 9/67/21 14/68/22
s 1
f 28/12/23 29/96/17 19/97/16 9/13/24
s 5
f 37/114/25 38/111/26 16/83/27 19/84/28
s off
f 19/48/29 16/49/30 14/50/31 9/51/32
s 6
f 30/87/33 31/88/34 13/89/35 10/90/36
s off
f 11/52/37 10/53/38 13/54/39 12/126/40
s 7
f 23/46/41 7/38/42 20/120/43 21/47/44
s 8
f 25/78/45 26/72/46 40/108/47 41/104/48
s 9
f 24/128/49 25/18/50 41/105/51 42/100/52
s 8
f 14/134/53 39/110/54 40/107/47 26/130/46
s 7
f 27/45/55 17/42/56 7/138/42 23/122/41
s 8
f 32/71/57 33/65/58 14/98/53 26/131/46
s 10
f 38/112/59 39/109/60 14/28/61 16/29/62
s 11
f 31/32/63 32/33/64 26/34/65 13/35/66
s off
f 24/56/67 13/133/68 26/57/69 25/58/70
s 12
f 42/101/71 34/23/72 12/24/73 24/17/74
s off
f 3/127/75 20/44/76 7/135/77
f 13/132/78 24/129/79 12/55/80
s 1
f 1/16/81 15/14/82 29/10/17 28/94/23
f 30/11/18 29/10/17 15/14/82 5/15/83
s 6
f 6/91/84 31/88/34 30/87/33 5/92/85
s 11
f 22/36/86 32/33/64 31/32/63 6/37/87
s 8
f 4/69/88 33/65/58 32/71/57 22/73/89
s 4
f 4/69/90 1/70/91 28/95/20 33/65/19
s 3
f 35/62/12 34/102/11 3/63/92 2/64/93
s 1
f 8/5/94 36/115/2 35/1/1 2/6/95
f 18/9/96 37/7/15 36/2/2 8/140/94
s 5
f 17/85/97 38/82/26 37/81/25 18/86/98
s 10
f 27/30/99 39/27/60 38/26/59 17/31/100
s 8
f 40/106/47 39/74/54 27/76/101 23/123/102
f 41/79/48 40/75/47 23/77/102 21/80/103
s 9
f 42/99/52 41/19/51 21/21/104 20/121/105
s 12
f 3/25/106 34/103/72 42/20/71 20/22/107
