# This file uses meters as units for non-parametric coordinates.

mtllib Coasters.mtl
g default
v 12.754363 -0.681227 -4.144144
v 10.849509 -0.681227 -7.882629
v 7.882629 -0.681227 -10.849508
v 4.144143 -0.681227 -12.754361
v 0.000000 -0.681227 -13.410728
v -4.144143 -0.681227 -12.754360
v -7.882627 -0.681227 -10.849506
v -10.849505 -0.681227 -7.882627
v -12.754358 -0.681227 -4.144142
v -13.410725 -0.681227 0.000000
v -12.754358 -0.681227 4.144142
v -10.849504 -0.681227 7.882626
v -7.882626 -0.681227 10.849504
v -4.144142 -0.681227 12.754356
v -0.000000 -0.681227 13.410724
v 4.144141 -0.681227 12.754355
v 7.882624 -0.681227 10.849503
v 10.849502 -0.681227 7.882625
v 12.754354 -0.681227 4.144141
v 13.410722 -0.681227 0.000000
v 12.754363 0.681227 -4.144144
v 10.849509 0.681227 -7.882629
v 7.882629 0.681227 -10.849508
v 4.144143 0.681227 -12.754361
v 0.000000 0.681227 -13.410728
v -4.144143 0.681227 -12.754360
v -7.882627 0.681227 -10.849506
v -10.849505 0.681227 -7.882627
v -12.754358 0.681227 -4.144142
v -13.410725 0.681227 0.000000
v -12.754358 0.681227 4.144142
v -10.849504 0.681227 7.882626
v -7.882626 0.681227 10.849504
v -4.144142 0.681227 12.754356
v -0.000000 0.681227 13.410724
v 4.144141 0.681227 12.754355
v 7.882624 0.681227 10.849503
v 10.849502 0.681227 7.882625
v 12.754354 0.681227 4.144141
v 13.410722 0.681227 0.000000
v 0.000000 -0.681227 0.000000
v 0.000000 0.681227 0.000000
v 13.365396 -0.297158 -4.342680
v 11.369285 -0.297158 -8.260268
v 11.369285 0.297158 -8.260268
v 13.365396 0.297158 -4.342680
v 8.260268 -0.297158 -11.369284
v 8.260268 0.297158 -11.369284
v 4.342680 -0.297158 -13.365394
v 4.342680 0.297158 -13.365394
v 0.000000 -0.297158 -14.053205
v 0.000000 0.297158 -14.053205
v -4.342680 -0.297158 -13.365393
v -4.342680 0.297158 -13.365393
v -8.260266 -0.297158 -11.369281
v -8.260266 0.297158 -11.369281
v -11.369280 -0.297158 -8.260265
v -11.369280 0.297158 -8.260265
v -13.365391 -0.297158 -4.342678
v -13.365391 0.297158 -4.342678
v -14.053202 -0.297158 0.000000
v -14.053202 0.297158 0.000000
v -13.365391 -0.297158 4.342678
v -13.365391 0.297158 4.342678
v -11.369279 -0.297158 8.260265
v -11.369279 0.297158 8.260265
v -8.260264 -0.297158 11.369279
v -8.260264 0.297158 11.369279
v -4.342678 -0.297158 13.365389
v -4.342678 0.297158 13.365389
v -0.000000 -0.297158 14.053202
v -0.000000 0.297158 14.053202
v 4.342677 -0.297158 13.365388
v 4.342677 0.297158 13.365388
v 8.260262 -0.297158 11.369278
v 8.260262 0.297158 11.369278
v 11.369276 -0.297158 8.260264
v 11.369276 0.297158 8.260264
v 13.365387 -0.297158 4.342678
v 13.365387 0.297158 4.342678
v 14.053199 -0.297158 0.000000
v 14.053199 0.297158 0.000000
vt 0.580259 0.797091
vt 0.537493 0.881025
vt 0.293909 0.704051
vt 0.470883 0.947635
vt 0.594995 0.704051
vt 0.386950 0.990401
vt 0.580259 0.611010
vt 0.293909 1.005137
vt 0.537493 0.527077
vt 0.200868 0.990401
vt 0.470883 0.460467
vt 0.116935 0.947635
vt 0.386950 0.417701
vt 0.050325 0.881025
vt 0.293909 0.402964
vt 0.007559 0.797091
vt 0.200868 0.417701
vt -0.007177 0.704051
vt 0.116935 0.460467
vt 0.007559 0.611010
vt 0.050325 0.527077
vt 0.959878 0.116935
vt 1.002644 0.200868
vt 0.716294 0.293909
vt 1.017380 0.293909
vt 0.893268 0.050325
vt 1.002644 0.386950
vt 0.809334 0.007559
vt 0.959877 0.470883
vt 0.716294 -0.007177
vt 0.893268 0.537493
vt 0.623253 0.007559
vt 0.809334 0.580259
vt 0.539320 0.050325
vt 0.716294 0.594995
vt 0.472710 0.116935
vt 0.623253 0.580259
vt 0.429944 0.200868
vt 0.539320 0.537493
vt 0.415207 0.293909
vt 0.472710 0.470883
vt 0.429944 0.386950
vt 0.198613 0.194031
vt 0.198613 0.154805
vt 0.207662 0.154805
vt 0.207662 0.194031
vt 0.192765 0.196019
vt 0.192765 0.158587
vt 0.198613 0.123676
vt 0.207662 0.123676
vt 0.213510 0.158587
vt 0.213510 0.196019
vt 0.198613 0.237512
vt 0.207662 0.237512
vt 0.192765 0.237512
vt 0.213510 0.237512
vt 0.198613 0.280994
vt 0.207662 0.280994
vt 0.192765 0.279006
vt 0.213510 0.279006
vt 0.198613 0.320219
vt 0.207662 0.320219
vt 0.192765 0.316438
vt 0.213510 0.316438
vt 0.198613 0.351349
vt 0.207662 0.351349
vt 0.369694 0.366517
vt 0.369694 0.294689
vt 0.386264 0.294689
vt 0.386264 0.366517
vt 0.358986 0.359593
vt 0.358986 0.291049
vt 0.369694 0.215067
vt 0.386264 0.215067
vt 0.396972 0.291049
vt 0.396972 0.359593
vt 0.369694 0.423520
vt 0.386264 0.423520
vt 0.358986 0.215067
vt 0.369694 0.135445
vt 0.386264 0.135445
vt 0.396972 0.215067
vt 0.358986 0.139085
vt 0.369694 0.063616
vt 0.386264 0.063616
vt 0.396972 0.139085
vt 0.358986 0.070540
vt 0.369694 0.006613
vt 0.386264 0.006613
vt 0.396972 0.070540
vt 0.132321 0.033652
vt 0.078805 0.087167
vt 0.069430 0.080355
vt 0.125509 0.024276
vt 0.044446 0.154600
vt 0.033425 0.151019
vt 0.032607 0.229350
vt 0.021018 0.229350
vt 0.044446 0.304101
vt 0.033425 0.307682
vt 0.078805 0.371534
vt 0.069430 0.378346
vt 0.132321 0.425049
vt 0.125509 0.434425
vt 0.286921 0.074093
vt 0.236933 0.024105
vt 0.243295 0.015347
vt 0.295678 0.067730
vt 0.319015 0.137081
vt 0.329310 0.133736
vt 0.330074 0.206905
vt 0.340899 0.206905
vt 0.319015 0.276728
vt 0.329310 0.280073
vt 0.286921 0.339717
vt 0.295678 0.346079
vt 0.236933 0.389705
vt 0.243295 0.398462
vt 0.834175 0.924718
vt 0.875345 0.883548
vt 0.882557 0.888789
vt 0.839415 0.931931
vt 0.901777 0.831671
vt 0.910256 0.834426
vt 0.910886 0.774165
vt 0.919801 0.774165
vt 0.901777 0.716659
vt 0.910256 0.713904
vt 0.875345 0.664782
vt 0.882557 0.659542
vt 0.834175 0.623612
vt 0.839415 0.616400
vt 0.131875 0.313340
vt 0.170399 0.351864
vt 0.165496 0.358614
vt 0.125126 0.318244
vt 0.107141 0.264796
vt 0.099207 0.267374
vt 0.098618 0.210986
vt 0.090276 0.210986
vt 0.107141 0.157175
vt 0.099207 0.154597
vt 0.131875 0.108631
vt 0.125126 0.103728
vt 0.170399 0.070107
vt 0.165496 0.063358
vt 0.769976 0.684183
vt 0.769976 0.726902
vt 0.760122 0.726902
vt 0.760122 0.684183
vt 0.769976 0.774255
vt 0.760122 0.774255
vt 0.769976 0.821609
vt 0.760122 0.821609
vt 0.769976 0.864328
vt 0.760122 0.864328
vt 0.970156 0.510532
vt 0.970156 0.389800
vt 0.998008 0.389800
vt 0.998008 0.510532
vt 0.970156 0.255967
vt 0.998008 0.255967
vt 0.970156 0.122134
vt 0.998008 0.122134
vt 0.970156 0.001402
vt 0.998008 0.001402
vn 0.811099 -0.522173 -0.263541
vn 0.689962 -0.522173 -0.501287
vn 0.689962 0.522173 -0.501287
vn 0.811099 0.522173 -0.263541
vn 0.501286 -0.522173 -0.689962
vn 0.501286 0.522173 -0.689962
vn 0.263542 -0.522173 -0.811099
vn 0.263542 0.522173 -0.811099
vn -0.000000 -0.522173 -0.852840
vn -0.000000 0.522173 -0.852840
vn -0.263542 -0.522173 -0.811099
vn -0.263542 0.522173 -0.811099
vn -0.501287 -0.522173 -0.689962
vn -0.501287 0.522173 -0.689962
vn -0.689962 -0.522173 -0.501286
vn -0.689962 0.522173 -0.501286
vn -0.811099 -0.522173 -0.263542
vn -0.811099 0.522173 -0.263542
vn -0.852839 -0.522173 -0.000000
vn -0.852839 0.522173 -0.000000
vn -0.811099 -0.522173 0.263542
vn -0.811099 0.522173 0.263542
vn -0.689962 -0.522173 0.501287
vn -0.689962 0.522173 0.501287
vn -0.501286 -0.522173 0.689962
vn -0.501286 0.522173 0.689962
vn -0.263542 -0.522173 0.811099
vn -0.263542 0.522173 0.811099
vn 0.000000 -0.522173 0.852839
vn 0.000000 0.522173 0.852839
vn 0.263542 -0.522173 0.811099
vn 0.263542 0.522173 0.811099
vn 0.501287 -0.522173 0.689962
vn 0.501287 0.522173 0.689962
vn 0.689962 -0.522173 0.501286
vn 0.689962 0.522173 0.501286
vn 0.811098 -0.522173 0.263542
vn 0.811099 0.522173 0.263542
vn 0.852840 -0.522173 0.000001
vn 0.852840 0.522173 0.000001
vn 0.000000 -1.000000 0.000000
vn 0.000000 -1.000000 0.000000
vn 0.000000 -1.000000 0.000000
vn 0.000000 -1.000000 0.000000
vn 0.000000 -1.000000 0.000000
vn 0.000000 -1.000000 0.000000
vn 0.000000 -1.000000 0.000000
vn 0.000000 -1.000000 0.000000
vn 0.000000 -1.000000 0.000000
vn 0.000000 -1.000000 0.000000
vn 0.000000 -1.000000 0.000000
vn 0.000000 -1.000000 -0.000000
vn 0.000000 -1.000000 0.000000
vn 0.000000 -1.000000 0.000000
vn 0.000000 -1.000000 -0.000000
vn 0.000000 -1.000000 -0.000000
vn 0.000000 -1.000000 0.000000
vn 0.000000 -1.000000 0.000000
vn 0.000000 -1.000000 0.000000
vn 0.000000 -1.000000 0.000000
vn 0.000000 -1.000000 0.000000
vn 0.000000 1.000000 0.000000
vn 0.000000 1.000000 0.000000
vn 0.000000 1.000000 -0.000000
vn 0.000000 1.000000 0.000000
vn 0.000000 1.000000 0.000000
vn 0.000000 1.000000 0.000000
vn 0.000000 1.000000 0.000000
vn 0.000000 1.000000 -0.000000
vn 0.000000 1.000000 -0.000000
vn 0.000000 1.000000 0.000000
vn 0.000000 1.000000 0.000000
vn 0.000000 1.000000 -0.000000
vn 0.000000 1.000000 0.000000
vn 0.000000 1.000000 0.000000
vn 0.000000 1.000000 0.000000
vn 0.000000 1.000000 0.000000
vn 0.000000 1.000000 -0.000000
vn 0.000000 1.000000 -0.000000
vn 0.000000 1.000000 0.000000
vn 0.000000 1.000000 0.000000
vn 0.000000 1.000000 0.000000
vn 0.461356 -0.855506 -0.235073
vn 0.461356 -0.855506 -0.235073
vn 0.461357 0.855506 -0.235073
vn 0.461357 0.855506 -0.235073
vn 0.366134 -0.855506 -0.366135
vn 0.366134 -0.855506 -0.366135
vn 0.366134 0.855506 -0.366135
vn 0.366134 0.855506 -0.366135
vn 0.235073 -0.855506 -0.461356
vn 0.235073 -0.855506 -0.461356
vn 0.235073 0.855506 -0.461356
vn 0.235073 0.855506 -0.461356
vn 0.081001 -0.855506 -0.511418
vn 0.081001 -0.855506 -0.511418
vn 0.081001 0.855506 -0.511418
vn 0.081001 0.855506 -0.511418
vn -0.081001 -0.855506 -0.511417
vn -0.081001 -0.855506 -0.511418
vn -0.081001 0.855506 -0.511418
vn -0.081001 0.855506 -0.511418
vn -0.235073 -0.855506 -0.461356
vn -0.235073 -0.855506 -0.461356
vn -0.235073 0.855506 -0.461356
vn -0.235073 0.855506 -0.461356
vn -0.366135 -0.855506 -0.366134
vn -0.366135 -0.855506 -0.366134
vn -0.366135 0.855506 -0.366134
vn -0.366135 0.855506 -0.366134
vn -0.461356 -0.855507 -0.235073
vn -0.461356 -0.855507 -0.235073
vn -0.461356 0.855506 -0.235073
vn -0.461356 0.855506 -0.235073
vn -0.511417 -0.855506 -0.081000
vn -0.511417 -0.855506 -0.081000
vn -0.511418 0.855506 -0.081000
vn -0.511418 0.855506 -0.081000
vn -0.511417 -0.855507 0.081000
vn -0.511417 -0.855507 0.081000
vn -0.511417 0.855506 0.081000
vn -0.511417 0.855507 0.081000
vn -0.461357 -0.855506 0.235073
vn -0.461357 -0.855506 0.235073
vn -0.461357 0.855506 0.235073
vn -0.461357 0.855506 0.235073
vn -0.366135 -0.855506 0.366135
vn -0.366135 -0.855506 0.366135
vn -0.366135 0.855506 0.366135
vn -0.366135 0.855506 0.366135
vn -0.235073 -0.855506 0.461356
vn -0.235073 -0.855506 0.461356
vn -0.235073 0.855506 0.461356
vn -0.235073 0.855506 0.461356
vn -0.081001 -0.855507 0.511417
vn -0.081001 -0.855507 0.511417
vn -0.081001 0.855507 0.511417
vn -0.081001 0.855507 0.511417
vn 0.081001 -0.855507 0.511417
vn 0.081001 -0.855506 0.511417
vn 0.081001 0.855506 0.511417
vn 0.081001 0.855507 0.511417
vn 0.235073 -0.855506 0.461356
vn 0.235073 -0.855506 0.461356
vn 0.235073 0.855506 0.461356
vn 0.235073 0.855506 0.461356
vn 0.366135 -0.855506 0.366135
vn 0.366135 -0.855506 0.366135
vn 0.366135 0.855506 0.366134
vn 0.366135 0.855506 0.366134
vn 0.461356 -0.855507 0.235072
vn 0.461356 -0.855507 0.235072
vn 0.461356 0.855507 0.235073
vn 0.461356 0.855507 0.235073
vn 0.511418 -0.855506 0.081001
vn 0.511418 -0.855506 0.081001
vn 0.511418 0.855506 0.081001
vn 0.511418 0.855506 0.081001
vn 0.511418 -0.855506 -0.081000
vn 0.511418 -0.855506 -0.081000
vn 0.511418 0.855506 -0.080999
vn 0.511418 0.855506 -0.080999
s 1
g pCylinder101
usemtl blinn15SG
f 43/43/1 44/44/2 45/45/3 46/46/4
f 44/44/2 47/49/5 48/50/6 45/45/3
f 47/147/5 49/148/7 50/149/8 48/150/6
f 49/148/7 51/151/9 52/152/10 50/149/8
f 51/151/9 53/153/11 54/154/12 52/152/10
f 53/153/11 55/155/13 56/156/14 54/154/12
f 55/77/13 57/67/15 58/70/16 56/78/14
f 57/67/15 59/68/17 60/69/18 58/70/16
f 59/68/17 61/73/19 62/74/20 60/69/18
f 61/73/19 63/80/21 64/81/22 62/74/20
f 63/80/21 65/84/23 66/85/24 64/81/22
f 65/84/23 67/88/25 68/89/26 66/85/24
f 67/157/25 69/158/27 70/159/28 68/160/26
f 69/158/27 71/161/29 72/162/30 70/159/28
f 71/161/29 73/163/31 74/164/32 72/162/30
f 73/163/31 75/165/33 76/166/34 74/164/32
f 75/65/33 77/61/35 78/62/36 76/66/34
f 77/61/35 79/57/37 80/58/38 78/62/36
f 79/57/37 81/53/39 82/54/40 80/58/38
f 81/53/39 43/43/1 46/46/4 82/54/40
s 2
f 2/22/41 1/23/42 41/24/43
f 3/26/44 2/22/41 41/24/43
f 4/28/45 3/26/44 41/24/43
f 5/30/46 4/28/45 41/24/43
f 6/32/47 5/30/46 41/24/43
f 7/34/48 6/32/47 41/24/43
f 8/36/49 7/34/48 41/24/43
f 9/38/50 8/36/49 41/24/43
f 10/40/51 9/38/50 41/24/43
f 11/42/52 10/40/51 41/24/43
f 12/41/53 11/42/52 41/24/43
f 13/39/54 12/41/53 41/24/43
f 14/37/55 13/39/54 41/24/43
f 15/35/56 14/37/55 41/24/43
f 16/33/57 15/35/56 41/24/43
f 17/31/58 16/33/57 41/24/43
f 18/29/59 17/31/58 41/24/43
f 19/27/60 18/29/59 41/24/43
f 20/25/61 19/27/60 41/24/43
f 1/23/42 20/25/61 41/24/43
s 3
f 21/1/62 22/2/63 42/3/64
f 22/2/63 23/4/65 42/3/64
f 23/4/65 24/6/66 42/3/64
f 24/6/66 25/8/67 42/3/64
f 25/8/67 26/10/68 42/3/64
f 26/10/68 27/12/69 42/3/64
f 27/12/69 28/14/70 42/3/64
f 28/14/70 29/16/71 42/3/64
f 29/16/71 30/18/72 42/3/64
f 30/18/72 31/20/73 42/3/64
f 31/20/73 32/21/74 42/3/64
f 32/21/74 33/19/75 42/3/64
f 33/19/75 34/17/76 42/3/64
f 34/17/76 35/15/77 42/3/64
f 35/15/77 36/13/78 42/3/64
f 36/13/78 37/11/79 42/3/64
f 37/11/79 38/9/80 42/3/64
f 38/9/80 39/7/81 42/3/64
f 39/7/81 40/5/82 42/3/64
f 40/5/82 21/1/62 42/3/64
s 1
f 1/47/83 2/48/84 44/44/2 43/43/1
f 22/51/85 21/52/86 46/46/4 45/45/3
f 2/91/87 3/92/88 47/93/5 44/94/2
f 23/105/89 22/106/90 45/107/3 48/108/6
f 3/92/91 4/95/92 49/96/7 47/93/5
f 24/109/93 23/105/94 48/108/6 50/110/8
f 4/95/95 5/97/96 51/98/9 49/96/7
f 25/111/97 24/109/98 50/110/8 52/112/10
f 5/97/99 6/99/100 53/100/11 51/98/9
f 26/113/101 25/111/102 52/112/10 54/114/12
f 6/99/103 7/101/104 55/102/13 53/100/11
f 27/115/105 26/113/106 54/114/12 56/116/14
f 7/101/107 8/103/108 57/104/15 55/102/13
f 28/117/109 27/115/110 56/116/14 58/118/16
f 8/71/111 9/72/112 59/68/17 57/67/15
f 29/75/113 28/76/114 58/70/16 60/69/18
f 9/72/115 10/79/116 61/73/19 59/68/17
f 30/82/117 29/75/118 60/69/18 62/74/20
f 10/79/119 11/83/120 63/80/21 61/73/19
f 31/86/121 30/82/122 62/74/20 64/81/22
f 11/83/123 12/87/124 65/84/23 63/80/21
f 32/90/125 31/86/126 64/81/22 66/85/24
f 12/119/127 13/120/128 67/121/25 65/122/23
f 33/133/129 32/134/130 66/135/24 68/136/26
f 13/120/131 14/123/132 69/124/27 67/121/25
f 34/137/133 33/133/134 68/136/26 70/138/28
f 14/123/135 15/125/136 71/126/29 69/124/27
f 35/139/137 34/137/138 70/138/28 72/140/30
f 15/125/139 16/127/140 73/128/31 71/126/29
f 36/141/141 35/139/142 72/140/30 74/142/32
f 16/127/143 17/129/144 75/130/33 73/128/31
f 37/143/145 36/141/146 74/142/32 76/144/34
f 17/129/147 18/131/148 77/132/35 75/130/33
f 38/145/149 37/143/150 76/144/34 78/146/36
f 18/63/151 19/59/152 79/57/37 77/61/35
f 39/60/153 38/64/154 78/62/36 80/58/38
f 19/59/155 20/55/156 81/53/39 79/57/37
f 40/56/157 39/60/158 80/58/38 82/54/40
f 20/55/159 1/47/160 43/43/1 81/53/39
f 21/52/161 40/56/162 82/54/40 46/46/4
