# This file uses meters as units for non-parametric coordinates.

mtllib Shelf_Glasses.mtl
g default
v -27.566315 -1.956024 250.000000
v 27.566284 -1.956024 250.000000
v -27.566315 1.956024 250.000000
v 27.566284 1.956024 250.000000
v -27.566284 1.956024 -250.000000
v 27.566315 1.956024 -250.000000
v -27.566284 -1.956024 -250.000000
v 27.566315 -1.956024 -250.000000
vt 0.440350 0.442230
vt 0.440350 0.377991
vt 0.440852 0.377991
vt 0.440852 0.442230
vt 0.441270 0.442230
vt 0.441270 0.377991
vt 0.441772 0.377991
vt 0.441772 0.442230
vt 0.425388 0.377991
vt 0.432472 0.377991
vt 0.432472 0.442230
vt 0.425388 0.442230
vt 0.432875 0.377991
vt 0.439958 0.377991
vt 0.439958 0.442230
vt 0.432875 0.442230
vt 0.442190 0.385074
vt 0.442190 0.377991
vt 0.442692 0.377991
vt 0.442692 0.385074
vt 0.443110 0.385074
vt 0.443110 0.377991
vt 0.443612 0.377991
vt 0.443612 0.385074
vn 0.000000 0.000000 1.000000
vn 0.000000 0.000000 1.000000
vn 0.000000 0.000000 1.000000
vn 0.000000 0.000000 1.000000
vn 0.000000 1.000000 -0.000000
vn 0.000000 1.000000 -0.000000
vn 0.000000 1.000000 -0.000000
vn 0.000000 1.000000 -0.000000
vn 0.000000 0.000000 -1.000000
vn 0.000000 0.000000 -1.000000
vn 0.000000 0.000000 -1.000000
vn 0.000000 0.000000 -1.000000
vn 0.000000 -1.000000 -0.000000
vn 0.000000 -1.000000 -0.000000
vn 0.000000 -1.000000 -0.000000
vn 0.000000 -1.000000 -0.000000
vn 1.000000 0.000000 0.000000
vn 1.000000 0.000000 0.000000
vn 1.000000 0.000000 0.000000
vn 1.000000 0.000000 0.000000
vn -1.000000 0.000000 -0.000000
vn -1.000000 0.000000 -0.000000
vn -1.000000 0.000000 -0.000000
vn -1.000000 0.000000 -0.000000
s off
g pCube78
usemtl blinn14SG
f 1/17/1 2/18/2 4/19/3 3/20/4
f 3/9/5 4/10/6 6/11/7 5/12/8
f 5/21/9 6/22/10 8/23/11 7/24/12
f 7/13/13 8/14/14 2/15/15 1/16/16
f 2/1/17 8/2/18 6/3/19 4/4/20
f 7/5/21 1/6/22 3/7/23 5/8/24
