# This file uses meters as units for non-parametric coordinates.

mtllib Wineglass_Holders.mtl
g default
v 30.903809 0.865311 2.813793
v 30.903809 -0.002899 2.315876
v 30.903809 -0.868210 2.818806
v 30.903809 -0.865311 3.819653
v 30.903809 0.002899 4.317570
v 30.903809 0.868210 3.814640
v -30.903809 0.865311 2.813793
v -30.903809 -0.002899 2.315876
v -30.903809 -0.868210 2.818806
v -30.903809 -0.865311 3.819653
v -30.903809 0.002899 4.317570
v -30.903809 0.868210 3.814640
v 30.903809 0.000000 3.316723
v -30.903809 0.000000 3.316723
v 30.903809 0.865311 -3.819653
v 30.903809 -0.002899 -4.317570
v 30.903809 -0.868210 -3.814640
v 30.903809 -0.865311 -2.813793
v 30.903809 0.002899 -2.315876
v 30.903809 0.868210 -2.818806
v -30.903809 0.865311 -3.819653
v -30.903809 -0.002899 -4.317570
v -30.903809 -0.868210 -3.814640
v -30.903809 -0.865311 -2.813793
v -30.903809 0.002899 -2.315876
v -30.903809 0.868210 -2.818806
v 30.903809 0.000000 -3.316723
v -30.903809 0.000000 -3.316723
vt 0.464397 0.493087
vt 0.464485 0.493138
vt 0.464397 0.493189
vt 0.464485 0.493239
vt 0.464310 0.493138
vt 0.464398 0.493290
vt 0.464310 0.493239
vt 0.464704 0.493239
vt 0.464617 0.493290
vt 0.464617 0.493189
vt 0.464529 0.493239
vt 0.464705 0.493138
vt 0.464529 0.493138
vt 0.464617 0.493087
vt 0.464836 0.493087
vt 0.464924 0.493138
vt 0.464836 0.493189
vt 0.464924 0.493239
vt 0.464748 0.493138
vt 0.464836 0.493290
vt 0.464749 0.493239
vt 0.465143 0.493239
vt 0.465055 0.493290
vt 0.465055 0.493189
vt 0.464968 0.493239
vt 0.465143 0.493138
vt 0.464968 0.493138
vt 0.465056 0.493087
vt 0.463195 0.493087
vt 0.463296 0.493087
vt 0.463296 0.499331
vt 0.463195 0.499331
vt 0.463144 0.493087
vt 0.463144 0.499331
vt 0.463518 0.493087
vt 0.463619 0.493087
vt 0.463619 0.499331
vt 0.463518 0.499331
vt 0.463467 0.493087
vt 0.463467 0.499331
vt 0.463841 0.493087
vt 0.463942 0.493087
vt 0.463942 0.499331
vt 0.463841 0.499331
vt 0.463790 0.493087
vt 0.463790 0.499331
vt 0.464164 0.493087
vt 0.464265 0.493087
vt 0.464265 0.499331
vt 0.464164 0.499331
vt 0.464114 0.493087
vt 0.464114 0.499331
vt 0.463016 0.493087
vt 0.463103 0.493087
vt 0.463103 0.499331
vt 0.463016 0.499331
vt 0.463340 0.493087
vt 0.463428 0.493087
vt 0.463428 0.499331
vt 0.463340 0.499331
vt 0.463663 0.493087
vt 0.463751 0.493087
vt 0.463751 0.499331
vt 0.463663 0.499331
vt 0.463987 0.493087
vt 0.464074 0.493087
vt 0.464074 0.499331
vt 0.463987 0.499331
vn 0.000000 0.497492 -0.867469
vn 0.000000 0.497492 -0.867469
vn 0.000000 0.497492 -0.867469
vn 0.000000 0.497492 -0.867469
vn 0.000000 -0.502503 -0.864576
vn 0.000000 -0.502503 -0.864576
vn 0.000000 -0.502503 -0.864576
vn 0.000000 -0.502503 -0.864576
vn 0.000000 -0.999996 0.002897
vn 0.000000 -0.999996 0.002897
vn 0.000000 -0.999996 0.002897
vn 0.000000 -0.999996 0.002897
vn 0.000000 -0.497492 0.867469
vn 0.000000 -0.497492 0.867469
vn 0.000000 -0.497492 0.867469
vn 0.000000 -0.497492 0.867469
vn 0.000000 0.502503 0.864576
vn 0.000000 0.502503 0.864576
vn 0.000000 0.502503 0.864576
vn 0.000000 0.502503 0.864576
vn 0.000000 0.999996 -0.002897
vn 0.000000 0.999996 -0.002897
vn 0.000000 0.999996 -0.002897
vn 0.000000 0.999996 -0.002897
vn 1.000000 0.000000 0.000000
vn 1.000000 0.000000 0.000000
vn 1.000000 0.000000 0.000000
vn 1.000000 0.000000 0.000000
vn 1.000000 0.000000 0.000000
vn 1.000000 0.000000 0.000000
vn 1.000000 0.000000 0.000000
vn -1.000000 0.000000 0.000000
vn -1.000000 0.000000 0.000000
vn -1.000000 0.000000 0.000000
vn -1.000000 0.000000 0.000000
vn -1.000000 0.000000 0.000000
vn -1.000000 0.000000 0.000000
vn -1.000000 0.000000 0.000000
vn 0.000000 0.497492 -0.867469
vn 0.000000 0.497492 -0.867469
vn 0.000000 0.497492 -0.867469
vn 0.000000 0.497492 -0.867469
vn 0.000000 -0.502503 -0.864576
vn 0.000000 -0.502503 -0.864576
vn 0.000000 -0.502503 -0.864576
vn 0.000000 -0.502503 -0.864576
vn 0.000000 -0.999996 0.002897
vn 0.000000 -0.999996 0.002897
vn 0.000000 -0.999996 0.002897
vn 0.000000 -0.999996 0.002897
vn 0.000000 -0.497492 0.867469
vn 0.000000 -0.497492 0.867469
vn 0.000000 -0.497492 0.867469
vn 0.000000 -0.497492 0.867469
vn 0.000000 0.502503 0.864576
vn 0.000000 0.502503 0.864576
vn 0.000000 0.502503 0.864576
vn 0.000000 0.502503 0.864576
vn 0.000000 0.999996 -0.002897
vn 0.000000 0.999996 -0.002897
vn 0.000000 0.999996 -0.002897
vn 0.000000 0.999996 -0.002897
vn 1.000000 0.000000 0.000000
vn 1.000000 0.000000 0.000000
vn 1.000000 0.000000 0.000000
vn 1.000000 0.000000 0.000000
vn 1.000000 0.000000 0.000000
vn 1.000000 0.000000 0.000000
vn 1.000000 0.000000 0.000000
vn -1.000000 0.000000 0.000000
vn -1.000000 0.000000 0.000000
vn -1.000000 0.000000 0.000000
vn -1.000000 0.000000 0.000000
vn -1.000000 0.000000 0.000000
vn -1.000000 0.000000 0.000000
vn -1.000000 0.000000 0.000000
s off
g polySurface211
usemtl blinn14SG
f 1/53/1 2/54/2 8/55/3 7/56/4
f 2/33/5 3/29/6 9/32/7 8/34/8
f 3/29/9 4/30/10 10/31/11 9/32/12
f 4/57/13 5/58/14 11/59/15 10/60/16
f 5/39/17 6/35/18 12/38/19 11/40/20
f 6/35/21 1/36/22 7/37/23 12/38/24
s 1
f 2/1/25 1/2/26 13/3/27
f 3/5/28 2/1/25 13/3/27
f 4/7/29 3/5/28 13/3/27
f 5/6/30 4/7/29 13/3/27
f 6/4/31 5/6/30 13/3/27
f 1/2/26 6/4/31 13/3/27
s 2
f 7/8/32 8/9/33 14/10/34
f 8/9/33 9/11/35 14/10/34
f 9/11/35 10/13/36 14/10/34
f 10/13/36 11/14/37 14/10/34
f 11/14/37 12/12/38 14/10/34
f 12/12/38 7/8/32 14/10/34
s off
f 15/61/39 16/62/40 22/63/41 21/64/42
f 16/45/43 17/41/44 23/44/45 22/46/46
f 17/41/47 18/42/48 24/43/49 23/44/50
f 18/65/51 19/66/52 25/67/53 24/68/54
f 19/51/55 20/47/56 26/50/57 25/52/58
f 20/47/59 15/48/60 21/49/61 26/50/62
s 3
f 16/15/63 15/16/64 27/17/65
f 17/19/66 16/15/63 27/17/65
f 18/21/67 17/19/66 27/17/65
f 19/20/68 18/21/67 27/17/65
f 20/18/69 19/20/68 27/17/65
f 15/16/64 20/18/69 27/17/65
s 4
f 21/22/70 22/23/71 28/24/72
f 22/23/71 23/25/73 28/24/72
f 23/25/73 24/27/74 28/24/72
f 24/27/74 25/28/75 28/24/72
f 25/28/75 26/26/76 28/24/72
f 26/26/76 21/22/70 28/24/72
